G04*
G04 #@! TF.GenerationSoftware,Altium Limited,Altium Designer,21.2.2 (38)*
G04*
G04 Layer_Color=16711935*
%FSLAX25Y25*%
%MOIN*%
G70*
G04*
G04 #@! TF.SameCoordinates,D655011B-D58E-49C3-9971-1785A8161550*
G04*
G04*
G04 #@! TF.FilePolarity,Negative*
G04*
G01*
G75*
G04:AMPARAMS|DCode=40|XSize=165.48mil|YSize=59.18mil|CornerRadius=16.8mil|HoleSize=0mil|Usage=FLASHONLY|Rotation=180.000|XOffset=0mil|YOffset=0mil|HoleType=Round|Shape=RoundedRectangle|*
%AMROUNDEDRECTD40*
21,1,0.16548,0.02559,0,0,180.0*
21,1,0.13189,0.05918,0,0,180.0*
1,1,0.03359,-0.06594,0.01280*
1,1,0.03359,0.06594,0.01280*
1,1,0.03359,0.06594,-0.01280*
1,1,0.03359,-0.06594,-0.01280*
%
%ADD40ROUNDEDRECTD40*%
G04:AMPARAMS|DCode=41|XSize=145.8mil|YSize=59.18mil|CornerRadius=16.8mil|HoleSize=0mil|Usage=FLASHONLY|Rotation=180.000|XOffset=0mil|YOffset=0mil|HoleType=Round|Shape=RoundedRectangle|*
%AMROUNDEDRECTD41*
21,1,0.14580,0.02559,0,0,180.0*
21,1,0.11221,0.05918,0,0,180.0*
1,1,0.03359,-0.05610,0.01280*
1,1,0.03359,0.05610,0.01280*
1,1,0.03359,0.05610,-0.01280*
1,1,0.03359,-0.05610,-0.01280*
%
%ADD41ROUNDEDRECTD41*%
G04:AMPARAMS|DCode=42|XSize=145.8mil|YSize=59.18mil|CornerRadius=16.8mil|HoleSize=0mil|Usage=FLASHONLY|Rotation=270.000|XOffset=0mil|YOffset=0mil|HoleType=Round|Shape=RoundedRectangle|*
%AMROUNDEDRECTD42*
21,1,0.14580,0.02559,0,0,270.0*
21,1,0.11221,0.05918,0,0,270.0*
1,1,0.03359,-0.01280,-0.05610*
1,1,0.03359,-0.01280,0.05610*
1,1,0.03359,0.01280,0.05610*
1,1,0.03359,0.01280,-0.05610*
%
%ADD42ROUNDEDRECTD42*%
%ADD43R,0.06181X0.06181*%
%ADD44C,0.06181*%
%ADD45C,0.05000*%
%ADD46R,0.07099X0.07099*%
%ADD47C,0.07099*%
%ADD48R,0.04934X0.04934*%
%ADD49C,0.04934*%
%ADD50C,0.06706*%
%ADD51R,0.06706X0.06706*%
%ADD52R,0.06706X0.06706*%
%ADD53C,0.03162*%
D40*
X62992Y333465D02*
D03*
D41*
Y309055D02*
D03*
D42*
X81496Y320866D02*
D03*
D43*
X60295Y246063D02*
D03*
D44*
Y234252D02*
D03*
D45*
X68012Y257874D02*
D03*
Y222441D02*
D03*
D46*
X212598Y293307D02*
D03*
D47*
X222598D02*
D03*
X232598D02*
D03*
X494095Y285591D02*
D03*
Y275591D02*
D03*
Y248189D02*
D03*
Y238189D02*
D03*
Y204882D02*
D03*
Y194882D02*
D03*
Y165512D02*
D03*
Y155512D02*
D03*
Y122205D02*
D03*
Y112205D02*
D03*
Y78898D02*
D03*
Y68898D02*
D03*
D48*
X444882Y279528D02*
D03*
Y238189D02*
D03*
X445787Y198819D02*
D03*
Y157480D02*
D03*
X446850Y116142D02*
D03*
Y74803D02*
D03*
D49*
X449882Y279528D02*
D03*
X454882D02*
D03*
X449882Y238189D02*
D03*
X454882D02*
D03*
X450787Y198819D02*
D03*
X455787D02*
D03*
X450787Y157480D02*
D03*
X455787D02*
D03*
X451850Y116142D02*
D03*
X456850D02*
D03*
X451850Y74803D02*
D03*
X456850D02*
D03*
D50*
X379921Y112756D02*
D03*
Y122756D02*
D03*
Y132756D02*
D03*
Y142756D02*
D03*
Y152756D02*
D03*
Y162756D02*
D03*
Y172756D02*
D03*
Y182756D02*
D03*
Y192756D02*
D03*
Y202756D02*
D03*
Y212756D02*
D03*
Y222756D02*
D03*
Y232756D02*
D03*
Y242756D02*
D03*
X349921Y112756D02*
D03*
Y122756D02*
D03*
Y132756D02*
D03*
Y142756D02*
D03*
Y152756D02*
D03*
Y162756D02*
D03*
Y172756D02*
D03*
Y182756D02*
D03*
Y192756D02*
D03*
Y202756D02*
D03*
Y212756D02*
D03*
Y222756D02*
D03*
Y232756D02*
D03*
X99173Y97205D02*
D03*
X109173D02*
D03*
X119173D02*
D03*
X129173D02*
D03*
X99173Y127205D02*
D03*
X109173D02*
D03*
X119173D02*
D03*
D51*
X349921Y242756D02*
D03*
D52*
X129173Y127205D02*
D03*
D53*
X214690Y143701D02*
D03*
X411417Y106490D02*
D03*
X415590Y116690D02*
D03*
X417290Y74790D02*
D03*
X427165Y314290D02*
D03*
M02*
