G04*
G04 #@! TF.GenerationSoftware,Altium Limited,Altium Designer,21.2.2 (38)*
G04*
G04 Layer_Physical_Order=2*
G04 Layer_Color=16711680*
%FSLAX25Y25*%
%MOIN*%
G70*
G04*
G04 #@! TF.SameCoordinates,D655011B-D58E-49C3-9971-1785A8161550*
G04*
G04*
G04 #@! TF.FilePolarity,Positive*
G04*
G01*
G75*
%ADD43R,0.06181X0.06181*%
%ADD44C,0.06181*%
%ADD45C,0.05000*%
%ADD54C,0.01968*%
G04:AMPARAMS|DCode=57|XSize=157.48mil|YSize=51.18mil|CornerRadius=12.8mil|HoleSize=0mil|Usage=FLASHONLY|Rotation=180.000|XOffset=0mil|YOffset=0mil|HoleType=Round|Shape=RoundedRectangle|*
%AMROUNDEDRECTD57*
21,1,0.15748,0.02559,0,0,180.0*
21,1,0.13189,0.05118,0,0,180.0*
1,1,0.02559,-0.06594,0.01280*
1,1,0.02559,0.06594,0.01280*
1,1,0.02559,0.06594,-0.01280*
1,1,0.02559,-0.06594,-0.01280*
%
%ADD57ROUNDEDRECTD57*%
G04:AMPARAMS|DCode=58|XSize=137.8mil|YSize=51.18mil|CornerRadius=12.8mil|HoleSize=0mil|Usage=FLASHONLY|Rotation=180.000|XOffset=0mil|YOffset=0mil|HoleType=Round|Shape=RoundedRectangle|*
%AMROUNDEDRECTD58*
21,1,0.13780,0.02559,0,0,180.0*
21,1,0.11221,0.05118,0,0,180.0*
1,1,0.02559,-0.05610,0.01280*
1,1,0.02559,0.05610,0.01280*
1,1,0.02559,0.05610,-0.01280*
1,1,0.02559,-0.05610,-0.01280*
%
%ADD58ROUNDEDRECTD58*%
G04:AMPARAMS|DCode=59|XSize=137.8mil|YSize=51.18mil|CornerRadius=12.8mil|HoleSize=0mil|Usage=FLASHONLY|Rotation=270.000|XOffset=0mil|YOffset=0mil|HoleType=Round|Shape=RoundedRectangle|*
%AMROUNDEDRECTD59*
21,1,0.13780,0.02559,0,0,270.0*
21,1,0.11221,0.05118,0,0,270.0*
1,1,0.02559,-0.01280,-0.05610*
1,1,0.02559,-0.01280,0.05610*
1,1,0.02559,0.01280,0.05610*
1,1,0.02559,0.01280,-0.05610*
%
%ADD59ROUNDEDRECTD59*%
%ADD60R,0.06299X0.06299*%
%ADD61C,0.06299*%
%ADD62R,0.04134X0.04134*%
%ADD63C,0.04134*%
%ADD64C,0.05906*%
%ADD65R,0.05906X0.05906*%
%ADD66R,0.05906X0.05906*%
%ADD67C,0.02362*%
D43*
X60295Y246063D02*
D03*
D44*
Y234252D02*
D03*
D45*
X68012Y257874D02*
D03*
Y222441D02*
D03*
D54*
X449982Y234990D02*
X494095D01*
X415590Y116690D02*
X446850D01*
X232598Y293307D02*
X251316Y274590D01*
X453140D01*
X454882Y276332D01*
Y279528D01*
X454390Y203090D02*
X455787Y198819D01*
X400255Y203090D02*
X454390D01*
X379921Y182756D02*
X400255Y203090D01*
X359921Y182756D02*
X379921D01*
X349921Y172756D02*
X359921Y182756D01*
X81496Y290640D02*
Y320866D01*
Y290640D02*
X83046Y289090D01*
X232498D01*
X232598Y289190D01*
Y293307D01*
X78101Y320866D02*
X81496D01*
X66290Y309055D02*
X78101Y320866D01*
X62992Y309055D02*
X66290D01*
X129173Y97205D02*
X214724Y182756D01*
X349921D01*
X214690Y143701D02*
X214724Y182756D01*
X119173Y127205D02*
X129173D01*
X264258Y262290D01*
X360388D01*
X379921Y242756D01*
X449882Y279528D02*
Y282590D01*
X449982Y282690D01*
X485640D01*
X489390Y278940D01*
Y276841D02*
Y278940D01*
Y276841D02*
X490640Y275591D01*
X494095D01*
X449882Y235090D02*
Y238189D01*
Y235090D02*
X449982Y234990D01*
X494095D02*
Y238189D01*
X450787Y194984D02*
Y198819D01*
Y194984D02*
X450890Y194882D01*
X494095D01*
X450787Y153140D02*
Y157480D01*
Y153140D02*
X451837Y152090D01*
X493995D01*
X494095Y152190D01*
Y155512D01*
X451850Y113494D02*
Y116142D01*
Y113494D02*
X453140Y112205D01*
X494095D01*
X451850Y70187D02*
Y74803D01*
Y70187D02*
X453140Y68898D01*
X494095D01*
X349921Y122756D02*
X366188Y106490D01*
X411417D01*
X446850Y116142D02*
Y116690D01*
X417290Y74790D02*
X417303Y74803D01*
X446850D01*
X212598Y293307D02*
Y312498D01*
X214390Y314290D01*
X427165D01*
D57*
X62992Y333465D02*
D03*
D58*
Y309055D02*
D03*
D59*
X81496Y320866D02*
D03*
D60*
X212598Y293307D02*
D03*
D61*
X222598D02*
D03*
X232598D02*
D03*
X494095Y285591D02*
D03*
Y275591D02*
D03*
Y248189D02*
D03*
Y238189D02*
D03*
Y204882D02*
D03*
Y194882D02*
D03*
Y165512D02*
D03*
Y155512D02*
D03*
Y122205D02*
D03*
Y112205D02*
D03*
Y78898D02*
D03*
Y68898D02*
D03*
D62*
X444882Y279528D02*
D03*
Y238189D02*
D03*
X445787Y198819D02*
D03*
Y157480D02*
D03*
X446850Y116142D02*
D03*
Y74803D02*
D03*
D63*
X449882Y279528D02*
D03*
X454882D02*
D03*
X449882Y238189D02*
D03*
X454882D02*
D03*
X450787Y198819D02*
D03*
X455787D02*
D03*
X450787Y157480D02*
D03*
X455787D02*
D03*
X451850Y116142D02*
D03*
X456850D02*
D03*
X451850Y74803D02*
D03*
X456850D02*
D03*
D64*
X379921Y112756D02*
D03*
Y122756D02*
D03*
Y132756D02*
D03*
Y142756D02*
D03*
Y152756D02*
D03*
Y162756D02*
D03*
Y172756D02*
D03*
Y182756D02*
D03*
Y192756D02*
D03*
Y202756D02*
D03*
Y212756D02*
D03*
Y222756D02*
D03*
Y232756D02*
D03*
Y242756D02*
D03*
X349921Y112756D02*
D03*
Y122756D02*
D03*
Y132756D02*
D03*
Y142756D02*
D03*
Y152756D02*
D03*
Y162756D02*
D03*
Y172756D02*
D03*
Y182756D02*
D03*
Y192756D02*
D03*
Y202756D02*
D03*
Y212756D02*
D03*
Y222756D02*
D03*
Y232756D02*
D03*
X99173Y97205D02*
D03*
X109173D02*
D03*
X119173D02*
D03*
X129173D02*
D03*
X99173Y127205D02*
D03*
X109173D02*
D03*
X119173D02*
D03*
D65*
X349921Y242756D02*
D03*
D66*
X129173Y127205D02*
D03*
D67*
X214690Y143701D02*
D03*
X411417Y106490D02*
D03*
X415590Y116690D02*
D03*
X417290Y74790D02*
D03*
X427165Y314290D02*
D03*
M02*
