M48
;Layer_Color=9474304
;FILE_FORMAT=2:5
INCH,LZ
;TYPE=PLATED
T1F00S00C0.01181
T2F00S00C0.03150
T4F00S00C0.03543
T5F00S00C0.03937
T6F00S00C0.04016
;TYPE=NON_PLATED
T7F00S00C0.05000
%
T01
X041729Y007479
X0411417Y010649
X041559Y011669
X021469Y0143701
X0427165Y031429
T02
X044685Y0074803
X045185
X045685
Y0116142
X045185
X044685
X0445787Y015748
X0450787
X0455787
Y0198819
X0450787
X0445787
X0444882Y0238189
X0449882
X0454882
Y0279528
X0449882
X0444882
T04
X0379921Y0112756
Y0122756
Y0132756
Y0142756
Y0152756
Y0162756
Y0172756
Y0182756
Y0192756
X0349921
Y0182756
Y0172756
Y0162756
Y0152756
Y0142756
Y0132756
Y0122756
Y0112756
X0129173Y0127205
X0119173
X0109173
X0099173
Y0097205
X0109173
X0119173
X0129173
X0349921Y0202756
Y0212756
Y0222756
Y0232756
Y0242756
X0379921
Y0232756
Y0222756
Y0212756
Y0202756
T05
X0494095Y0068898
Y0078898
Y0112205
Y0122205
Y0155512
Y0165512
X0232598Y0293307
X0222598
X0212598
X0494095Y0285591
Y0275591
Y0248189
Y0238189
Y0204882
Y0194882
T06
X0060295Y0234252
Y0246063
T07
X0068012Y0222441
Y0257874
M30
